<?xml version="1.0" standalone="no"?>
<!DOCTYPE svg PUBLIC "-//W3C//DTD SVG 20010904//EN"
 "http://www.w3.org/TR/2001/REC-SVG-20010904/DTD/svg10.dtd">
<svg version="1.0" xmlns="http://www.w3.org/2000/svg"
 width="225.000000pt" height="225.000000pt" viewBox="0 0 225.000000 225.000000"
 preserveAspectRatio="xMidYMid meet">
<metadata>
Created by potrace 1.11, written by Peter Selinger 2001-2013
</metadata>
<g transform="translate(0.000000,225.000000) scale(0.100000,-0.100000)"
fill="#000000" stroke="none">
<path d="M90 2158 c-33 -17 -51 -35 -67 -68 l-23 -44 0 -916 0 -916 22 -44
c17 -33 35 -51 68 -68 l44 -22 991 0 991 0 44 23 c33 16 51 34 68 67 l22 44 0
916 0 916 -22 44 c-17 33 -35 51 -68 68 l-44 22 -991 0 -991 0 -44 -22z m1205
-1458 c12 -13 15 -27 11 -45 -13 -52 -99 -52 -112 0 -13 54 62 88 101 45z
m-846 -125 c103 -53 118 -180 32 -258 -65 -59 -159 -58 -220 4 -102 102 -32
269 112 269 26 0 61 -7 76 -15z m370 0 c98 -50 117 -177 38 -253 -32 -31 -81
-52 -119 -52 -15 0 -18 10 -18 64 0 57 2 64 19 59 20 -5 51 20 51 42 0 19 -28
45 -49 45 -36 0 -41 -20 -41 -167 l0 -143 -60 0 -60 0 0 147 c0 171 13 213 77
251 45 26 120 29 162 7z m491 -140 l0 -155 -60 0 -60 0 0 155 0 155 60 0 60 0
0 -155z m301 132 c54 -36 64 -67 64 -197 0 -98 -3 -120 -21 -150 -33 -57 -78
-81 -144 -78 l-55 3 -3 52 -3 52 34 -6 c27 -4 40 0 56 16 18 18 21 33 21 109
0 97 -7 115 -40 110 -51 -7 -51 -69 -1 -76 20 -3 22 -9 19 -55 -3 -52 -3 -52
-38 -55 -43 -3 -93 26 -121 70 -26 43 -22 122 9 165 46 64 157 84 223 40z
m366 3 c60 -36 90 -108 72 -174 -28 -107 -151 -154 -247 -95 -98 59 -96 209 4
266 50 29 126 31 171 3z m-827 -49 c0 -49 -3 -59 -19 -64 -13 -3 -20 -17 -25
-49 -13 -86 -68 -138 -146 -138 l-30 0 0 60 c0 33 4 60 10 60 24 0 50 41 50
79 0 42 28 87 64 101 11 5 38 9 59 9 l37 1 0 -59z"/>
<path d="M346 464 c-30 -30 -13 -74 29 -74 42 0 59 44 29 74 -8 9 -22 16 -29
16 -7 0 -21 -7 -29 -16z"/>
<path d="M1862 468 c-29 -29 -7 -78 35 -78 35 0 52 43 28 70 -20 23 -45 26
-63 8z"/>
</g>
</svg>
